<?xml version="1.0" encoding="utf-8"?>
<!-- Generator: Adobe Illustrator 21.0.2, SVG Export Plug-In . SVG Version: 6.00 Build 0)  -->
<svg version="1.1" id="Layer_1" xmlns="http://www.w3.org/2000/svg" xmlns:xlink="http://www.w3.org/1999/xlink" x="0px" y="0px"
	 viewBox="0 0 1126 162" style="enable-background:new 0 0 1126 162;" xml:space="preserve">
<style type="text/css">
	.st0{fill:#30475E;}
	.st1{fill:#F05454;}
</style>
<g>
	<path class="st0" d="M159.5,31.5c-12.6,0-23.5,4.5-32.4,13.5c-8.9,8.9-13.4,19.8-13.4,32.3c0,12.6,4.5,23.5,13.4,32.4
		s19.8,13.4,32.4,13.4c8.1,0,15.8-2.1,22.9-6.1c4.2-2.5,7.9-5.5,11.1-9v12h11.9V77.3c0-12.6-4.5-23.5-13.5-32.3
		C183,36,172.1,31.5,159.5,31.5 M193.5,77.3c0,9.5-3.3,17.3-9.9,24c-6.7,6.7-14.5,9.9-24,9.9s-17.3-3.3-24-9.9
		c-6.7-6.7-9.9-14.5-9.9-24s3.3-17.3,9.9-24c6.7-6.7,14.5-9.9,24-9.9s17.3,3.3,24,9.9C190.2,60,193.5,67.8,193.5,77.3"/>
	<path class="st0" d="M265,76.8c-2.5-2-5.8-3.9-9.6-5.6c-1.5-0.7-3.2-1.4-5.1-2.2l-5.1-2c-6.8-2.6-11.4-4.7-13.7-6.3
		c-2.7-1.9-4-4-4-6.4c0-4.5,2.1-7.5,6.5-9.3c1.6-0.7,3.4-1.1,5.3-1.4l2.2-0.2h1.1c5.5,0,10.5,0.7,14.7,2c1.3,0.4,2.5,0.9,3.3,1.2
		l0.9,0.5l2.1,2.1l8.6-12.3h-4.7c-0.3-0.2-0.7-0.4-1.1-0.6c-1.5-0.7-3.1-1.4-4.9-1.9c-5.5-1.8-11.8-2.8-18.8-2.8
		c-6.4,0-12,1.5-16.9,4.5c-6.7,4.1-10.1,10.3-10.1,18.3c0,6.3,2.9,11.6,8.6,15.7c2.1,1.6,4.8,3.1,8.1,4.6c1.2,0.5,2.7,1.1,4.3,1.8
		L241,78c7.9,3,13.4,5.6,16.1,7.6c4.2,3.1,6.3,6.9,6.3,11.6c0,3.8-1.3,6.9-4.1,9.5c-3.2,3-7.9,4.5-13.8,4.5
		c-6.7,0-13.9-2.5-21.6-7.5l-2.4-1.5l-6.5,9.9l2.4,1.6c9.7,6.2,19.1,9.4,28.1,9.4c9.3,0,16.9-2.7,22.3-8.1
		c4.9-4.8,7.4-10.8,7.4-17.7C275.3,88.9,271.8,82,265,76.8"/>
	<path class="st0" d="M297.5,20.1h-11.9v68.4c0,9.4,3.4,17.6,10.2,24.3c6.7,6.7,14.8,10.1,24.2,10.1c6.8,0,13-1.8,18.5-5.3l1.3-0.8
		V101l-4.8,4.3c-4.3,3.9-9.2,5.7-15,5.7c-6.3,0-11.5-2.2-15.9-6.6s-6.6-9.6-6.6-15.9V46.3h42.3V34.5h-42.3L297.5,20.1L297.5,20.1z"
		/>
	<path class="st0" d="M419.5,43.6c-8.7-8-19.1-12.1-30.9-12.1c-12.6,0-23.5,4.5-32.4,13.5c-8.9,8.9-13.4,19.8-13.4,32.3
		c0,12.6,4.5,23.5,13.4,32.3c8.9,8.9,19.8,13.5,32.4,13.5c9.7,0,18.6-2.9,26.5-8.5c7.7-5.5,13.2-12.8,16.4-21.6l1.4-3.8h-12.5
		l-0.7,1.7c-2.6,6.1-6.8,11-12.3,14.7c-5.7,3.8-12,5.7-18.8,5.7c-9.1,0-16.7-3-23.3-9.3c-5.8-5.5-9.2-12-10.2-19.6h79.1l0.3-5
		c0-1.2-0.1-2.6-0.2-4.2C433.1,61.4,428.2,51.5,419.5,43.6 M421.9,70.4h-66.5c1.4-7.2,4.8-13.2,10.5-18.4c6.5-5.9,14-8.8,22.8-8.8
		s16.2,2.9,22.8,8.8C417,57.2,420.5,63.2,421.9,70.4"/>
	<path class="st0" d="M494.5,32.7c-3.3-0.9-6.7-1.3-10.2-1.3c-10.9,0-20.3,3.9-28,11.6s-11.6,17.1-11.6,28v48.9h11.9V71
		c0-7.7,2.7-14.2,8.2-19.7c5.4-5.5,11.9-8.1,19.6-8.1c2.9,0,5.8,0.5,8.6,1.4l3.7,1.2V33.3L494.5,32.7z"/>
	<rect x="528.2" y="37.3" class="st1" width="6.1" height="79.8"/>
	<path class="st1" d="M548.3,117.2V70.8c0-10.2,3.6-18.9,10.8-26.1C566.3,37.6,575,34,585.2,34c10.1,0,18.8,3.6,26,10.8
		s10.8,15.9,10.8,26v46.4h-6.1V70.8c0-8.5-3-15.7-9-21.7s-13.2-9-21.7-9s-15.7,3-21.7,9s-9,13.2-9,21.7v46.4
		C554.5,117.2,548.3,117.2,548.3,117.2z"/>
	<path class="st1" d="M681.6,40.7c-0.9-0.1-1.8-0.1-2.7-0.1c-10.2,0-18.8,3.6-26,10.8s-10.8,15.9-10.8,26v8.8h39.5v6.1h-39.5v54.3
		H636V77.4c0-11.8,4.2-22,12.6-30.4c8.4-8.4,18.5-12.6,30.3-12.6c0.9,0,1.8,0,2.7,0.1V40.7z"/>
	<path class="st1" d="M705.7,107.6c-8.4-8.4-12.6-18.5-12.6-30.3s4.2-21.9,12.6-30.3c8.4-8.4,18.5-12.6,30.4-12.6
		c11.8,0,21.9,4.2,30.3,12.6c8.4,8.4,12.6,18.5,12.6,30.3s-4.2,21.9-12.6,30.3c-8.4,8.4-18.5,12.6-30.3,12.6
		C724.2,120.2,714.1,116,705.7,107.6 M710,51.2c-7.2,7.2-10.8,15.9-10.8,26c0,10.2,3.6,18.8,10.8,26s15.9,10.8,26,10.8
		c10.2,0,18.8-3.6,26-10.8c7.2-7.2,10.8-15.9,10.8-26c0-10.2-3.6-18.8-10.8-26s-15.9-10.8-26-10.8C725.9,40.5,717.2,44.1,710,51.2"
		/>
	<path class="st1" d="M838.9,115.2c-5,3.2-10.6,4.9-16.9,4.9c-8.7,0-16.1-3.1-22.2-9.2c-6.2-6.2-9.3-13.6-9.3-22.3V23h6.2v14.4H839
		v6.1h-42.3v45.1c0,7,2.5,13,7.4,17.9c4.9,5,10.9,7.4,17.9,7.4c6.5,0,12.2-2.2,16.9-6.5L838.9,115.2L838.9,115.2z"/>
	<path class="st1" d="M886.1,34.3c11.1,0,20.8,3.8,29,11.3s12.7,16.7,13.7,27.6c0.1,1.5,0.2,2.8,0.2,4l-0.1,1.1l-0.1,1.1h-79.5
		c0.6,9.7,4.4,17.9,11.4,24.6c7.1,6.7,15.5,10.1,25.3,10.1c7.4,0,14.2-2.1,20.4-6.2c6-4,10.4-9.3,13.3-15.9h6.5
		c-3.1,8.3-8.2,15.1-15.4,20.3c-7.4,5.3-15.7,8-24.8,8c-11.8,0-22-4.2-30.4-12.6S843,89.2,843,77.4s4.2-21.9,12.6-30.3
		C864.1,38.5,874.2,34.3,886.1,34.3 M922.6,73.3c-1-9.3-5-17.1-11.9-23.3c-7-6.3-15.3-9.5-24.7-9.5c-9.5,0-17.7,3.2-24.7,9.5
		s-10.9,14.1-11.9,23.3H922.6z"/>
	<path class="st1" d="M980.9,114.1c8.5,0,16.1-2.7,22.8-8c6.6-5.2,10.9-11.9,12.8-20h6.3c-2,9.8-7,18-14.7,24.4
		c-7.9,6.5-17,9.8-27.3,9.8c-11.8,0-22-4.2-30.4-12.6s-12.6-18.5-12.6-30.3s4.2-21.9,12.6-30.3c8.4-8.4,18.5-12.6,30.4-12.6
		c10.2,0,19.3,3.3,27.3,9.8c7.8,6.4,12.7,14.6,14.7,24.4h-6.3c-2-8.2-6.3-14.8-12.8-20.1c-6.7-5.3-14.3-8-22.8-8
		c-10.2,0-18.8,3.6-26,10.8s-10.8,15.9-10.8,26s3.6,18.8,10.8,26C962,110.5,970.7,114.1,980.9,114.1"/>
	<path class="st1" d="M1034.3,15h6.1v35.3c1.3-1.9,2.9-3.8,4.6-5.5c7.2-7.2,15.9-10.8,26.1-10.8c10.1,0,18.8,3.6,26,10.8
		s10.8,15.9,10.8,26.1v46.4h-6.1V70.8c0-8.5-3-15.7-9-21.7s-13.2-9-21.7-9s-15.7,3-21.7,9c-6,5.7-8.9,12.4-8.9,20.3v47.7h-0.1v0.1
		h-6.1L1034.3,15L1034.3,15z"/>
	<polygon class="st0" points="18,23.8 18,120.1 29.9,120.1 29.9,69.1 60.7,120 91.6,69.1 91.6,120.1 103.4,120.1 103.4,23.8 
		60.7,96.7 	"/>
</g>
</svg>
